<?xml version="1.0" encoding="UTF-8"?>
<!DOCTYPE svg PUBLIC "-//W3C//DTD SVG 1.1//EN" "http://www.w3.org/Graphics/SVG/1.1/DTD/svg11.dtd">
<!-- Creator: CorelDRAW 2020 (64-Bit) -->
<svg xmlns="http://www.w3.org/2000/svg" xml:space="preserve" width="320mm" height="280mm" version="1.1" style="shape-rendering:geometricPrecision; text-rendering:geometricPrecision; image-rendering:optimizeQuality; fill-rule:evenodd; clip-rule:evenodd"
viewBox="0 0 320 280"
 xmlns:xlink="http://www.w3.org/1999/xlink"
 xmlns:xodm="http://www.corel.com/coreldraw/odm/2003">
 <defs>
	  <style type="text/css">
	   <![CDATA[
		.str1 {stroke:black;stroke-width:0;stroke-miterlimit:22.9256}
		.str0 {stroke:black;stroke-width:0;stroke-miterlimit:22.9256}
		.fil1 {fill:white}
		.fil0 {fill:black}
	   ]]>
	  </style>
 </defs>
	   <g id="RectBlack">
		 <g id="Layer_x0020_1_0">
		  <metadata id="CorelCorpID_1Corel-Layer"/>
		  <!-- x="104" y="17" координаты верхнего левого угла черного основания -->
		  <!--RectBlack Start -->
		  <rect class="fil0 str0" x="100" y="99" width="5.4" height="15"/>
		  <!--RectBlack End -->
			  <g id="Rect_inclined_red_x0020__x2014__x0020_03.svg">
				   <g id="RectWhite">
				   <!-- угл поворота: cos, -sin, sin, cos, x левый верхний угол, y левый верхний угол 
						ширина, длина-->
						<!--RectWhite1 Start -->
						<rect class="fil1 str1" transform="matrix(0.707106 -0.707106 0.707106 0.707106 100.531 102.41)" width="1.05" height="2.3"/>
						<!--RectWhite1 End -->
						<!--RectWhite2 Start -->
						<rect class="fil1 str1" transform="matrix(0.707106 -0.707106 0.707106 0.707106 100.531 104.82)" width="1.05" height="2.3"/>
						<!--RectWhite2 End -->
						<!--RectWhite3 Start -->
						<rect class="fil1 str1" transform="matrix(0.707106 -0.707106 0.707106 0.707106 100.531 107.23)" width="1.05" height="2.3"/>
						<!--RectWhite3 End -->
						<!--RectWhite4 Start -->
						<rect class="fil1 str1" transform="matrix(0.707106 -0.707106 0.707106 0.707106 100.531 109.64)" width="1.05" height="2.3"/>
						<!--RectWhite4 End -->
						<!--RectWhite5 Start -->
						<rect class="fil1 str1" transform="matrix(0.707106 -0.707106 0.707106 0.707106 100.531 112.05)" width="1.05" height="2.3"/>
						<!--RectWhite5 End -->
						
						<!--RectWhite6 Start -->
						<rect class="fil1 str1" transform="matrix(0.707106 -0.707106 0.707106 0.707106 102.8 102.41)" width="1.05" height="2.3"/>
						<!--RectWhite6 End -->
						<!--RectWhite7 Start -->
						<rect class="fil1 str1" transform="matrix(0.707106 -0.707106 0.707106 0.707106 102.8 104.82)" width="1.05" height="2.3"/>
						<!--RectWhite7 End -->
						<!--RectWhite8 Start -->
						<rect class="fil1 str1" transform="matrix(0.707106 -0.707106 0.707106 0.707106 102.8 107.23)" width="1.05" height="2.3"/>
						<!--RectWhite8 End -->
						<!--RectWhite9 Start -->
						<rect class="fil1 str1" transform="matrix(0.707106 -0.707106 0.707106 0.707106 102.8 109.64)" width="1.05" height="2.3"/>
						<!--RectWhite9 End -->
						<!--RectWhite10 Start -->
						<rect class="fil1 str1" transform="matrix(0.707106 -0.707106 0.707106 0.707106 102.8 112.05)" width="1.05" height="2.3"/>
						<!--RectWhite10 End -->
				   </g>
			  </g>
		 </g>
	  </g>
</svg>
